<?xml version="1.0" standalone="no"?>
<!DOCTYPE svg PUBLIC "-//W3C//DTD SVG 20010904//EN"
 "http://www.w3.org/TR/2001/REC-SVG-20010904/DTD/svg10.dtd">
<svg version="1.0" xmlns="http://www.w3.org/2000/svg"
 width="1597.000000pt" height="1597.000000pt" viewBox="0 0 1597.000000 1597.000000"
 preserveAspectRatio="xMidYMid meet">
<metadata>
Created by potrace 1.14, written by Peter Selinger 2001-2017
</metadata>
<g transform="translate(0.000000,1597.000000) scale(0.100000,-0.100000)"
fill="#000000" stroke="none">
<path d="M7648 15965 c-1 -2 -59 -6 -128 -9 -69 -4 -141 -8 -160 -10 -19 -3
-70 -7 -113 -11 -43 -3 -86 -8 -95 -10 -9 -1 -53 -6 -97 -11 -44 -4 -82 -8
-85 -9 -3 -1 -36 -5 -75 -10 -38 -5 -72 -10 -75 -10 -3 -1 -27 -5 -55 -10 -27
-4 -57 -9 -65 -10 -8 -2 -35 -6 -60 -10 -54 -9 -71 -12 -135 -25 -27 -5 -66
-12 -85 -15 -19 -4 -55 -11 -80 -16 -25 -6 -53 -12 -64 -14 -348 -72 -1036
-287 -1293 -406 -24 -10 -45 -19 -48 -19 -4 0 -25 -9 -48 -19 -23 -10 -71 -31
-107 -46 -195 -81 -655 -320 -906 -470 -152 -92 -432 -280 -613 -412 -46 -33
-296 -227 -321 -249 -312 -267 -351 -303 -520 -468 -191 -188 -343 -350 -501
-536 -35 -41 -66 -77 -69 -80 -3 -3 -21 -25 -40 -50 -19 -25 -37 -47 -41 -50
-3 -3 -45 -57 -93 -120 -48 -63 -98 -128 -111 -145 -57 -73 -244 -350 -335
-495 -29 -47 -60 -96 -69 -110 -9 -14 -21 -34 -27 -45 -6 -11 -35 -63 -66
-115 -292 -508 -527 -1052 -708 -1640 -40 -129 -151 -557 -164 -630 -3 -19 -8
-44 -11 -55 -27 -122 -49 -249 -80 -455 -31 -210 -39 -283 -60 -505 -17 -185
-27 -448 -26 -685 0 -282 14 -596 26 -608 8 -8 5226 -8 5238 1 8 4 9 10 2 15
-42 31 -140 217 -179 339 -37 118 -49 265 -32 388 8 61 48 191 80 260 35 76
101 185 120 197 15 10 183 9 -1906 10 l-1848 1 6 71 c4 61 13 127 40 316 2 19
9 64 15 100 6 36 13 77 15 91 2 14 13 70 25 125 12 54 23 108 25 119 2 11 18
74 34 140 17 66 33 130 36 143 10 50 105 354 147 472 324 910 852 1746 1527
2420 252 251 414 391 735 637 159 122 526 360 685 444 36 19 67 37 68 42 2 4
7 7 12 7 5 0 53 24 109 54 55 29 102 52 104 50 2 -3 10 2 17 11 7 8 16 15 21
15 5 0 46 18 92 39 498 236 1104 429 1627 517 25 4 47 8 50 9 3 1 30 5 60 9
30 5 62 10 70 11 8 2 58 8 110 15 52 6 106 13 120 16 14 2 61 6 105 10 44 4
91 8 105 10 187 23 842 22 1045 -1 17 -2 64 -6 105 -10 903 -77 1875 -395
2690 -880 142 -85 485 -310 510 -335 3 -3 32 -25 65 -49 418 -309 865 -743
1199 -1165 147 -187 366 -498 463 -661 374 -628 641 -1282 783 -1920 10 -44
23 -100 28 -125 6 -25 13 -61 16 -80 3 -19 13 -71 21 -115 14 -74 28 -158 41
-260 3 -22 7 -51 10 -65 2 -14 7 -56 10 -95 4 -38 8 -77 10 -85 1 -8 3 -20 3
-26 1 -8 202 -11 741 -11 l741 0 -6 56 c-7 64 -12 120 -20 206 -3 33 -8 78
-11 100 -8 59 -12 84 -20 145 -4 30 -8 60 -9 65 -1 16 -17 118 -21 140 -2 11
-9 47 -14 80 -6 33 -25 128 -41 210 -17 83 -32 157 -34 165 -2 8 -8 35 -15 60
-7 25 -14 56 -17 69 -4 24 -49 197 -79 301 -69 248 -256 769 -350 977 -14 32
-40 90 -57 128 -97 218 -414 810 -463 866 -8 8 -14 19 -14 23 0 11 -206 321
-304 456 -115 160 -318 422 -356 460 -3 3 -21 25 -41 50 -20 25 -47 57 -60 71
-13 14 -55 61 -94 105 -87 99 -505 517 -604 604 -41 36 -79 70 -85 75 -36 34
-265 222 -341 280 -49 38 -96 75 -103 82 -7 7 -17 13 -20 13 -4 0 -19 10 -32
23 -14 12 -40 32 -58 45 -70 49 -125 87 -141 97 -9 6 -18 13 -21 16 -6 8 -359
236 -417 270 -22 13 -67 39 -100 58 -252 147 -546 296 -833 424 -319 141 -844
321 -1171 402 -141 35 -311 75 -342 80 -17 4 -61 12 -97 20 -36 8 -92 19 -125
25 -33 5 -70 12 -81 14 -32 6 -94 17 -133 22 -19 2 -48 7 -65 10 -17 3 -47 7
-66 9 -19 2 -73 9 -120 15 -158 20 -199 24 -345 36 -44 3 -98 8 -120 10 -51 5
-862 14 -867 9z"/>
<path d="M7968 9315 c-1 -1 -77 -6 -168 -9 -91 -4 -181 -8 -200 -10 -53 -5
-152 -17 -180 -21 -14 -2 -47 -7 -74 -10 -27 -3 -51 -7 -55 -9 -3 -2 -30 -7
-60 -11 -30 -4 -63 -9 -75 -12 -18 -4 -47 -10 -121 -27 -60 -13 -86 -20 -150
-38 -38 -11 -92 -27 -120 -36 -27 -9 -55 -17 -60 -18 -23 -4 -245 -94 -325
-132 -360 -169 -644 -422 -756 -672 -20 -46 -52 -146 -60 -190 -10 -54 -12
-200 -3 -240 4 -19 11 -51 14 -70 15 -86 92 -237 178 -348 68 -89 215 -220
341 -304 130 -87 365 -206 518 -262 211 -78 492 -149 713 -181 23 -3 50 -7 60
-9 11 -2 49 -7 85 -11 36 -4 79 -9 95 -11 223 -27 681 -22 940 10 28 4 65 8
83 11 18 2 45 6 60 9 15 3 43 8 62 10 42 7 85 14 122 22 15 3 29 5 30 5 2 0
64 16 138 35 74 19 142 36 150 38 167 43 417 149 605 255 211 119 405 285 503
430 20 31 40 58 43 61 19 16 82 173 100 248 22 93 27 240 10 300 -5 17 -8 32
-6 32 7 0 -43 136 -70 190 -149 295 -452 530 -947 734 -21 8 -38 12 -38 9 0
-3 -6 -1 -12 5 -19 14 -284 94 -388 117 -205 44 -333 65 -475 80 -38 4 -83 8
-100 11 -16 2 -109 6 -205 10 -96 3 -180 7 -187 9 -6 2 -13 2 -15 0z"/>
<path d="M14499 7380 c-16 -4 -24 -14 -25 -30 -2 -43 -14 -155 -18 -175 -8
-43 -20 -130 -18 -136 5 -23 -77 -435 -125 -624 -19 -77 -36 -147 -38 -155 -2
-8 -18 -62 -35 -120 -278 -935 -767 -1802 -1430 -2535 -83 -92 -364 -370 -455
-450 -49 -44 -92 -83 -95 -86 -19 -22 -278 -228 -400 -318 -52 -39 -99 -74
-105 -79 -5 -4 -25 -17 -42 -27 -18 -11 -33 -23 -33 -27 0 -4 -4 -8 -9 -8 -7
0 -95 -56 -226 -143 -29 -19 -247 -147 -330 -192 -199 -110 -475 -240 -710
-335 -121 -49 -570 -202 -626 -214 -13 -3 -75 -19 -138 -36 -63 -17 -124 -32
-135 -35 -187 -40 -414 -85 -457 -90 -30 -3 -61 -8 -69 -10 -14 -4 -43 -8
-142 -20 -24 -3 -54 -8 -68 -10 -14 -2 -61 -7 -105 -11 -44 -3 -88 -8 -97 -9
-98 -19 -793 -26 -998 -11 -173 12 -200 15 -335 32 -27 3 -63 8 -80 9 -16 1
-48 5 -70 9 -83 12 -121 18 -140 22 -11 2 -49 9 -85 14 -81 13 -133 24 -320
65 -8 1 -33 8 -55 13 -22 6 -51 13 -65 15 -14 3 -91 24 -170 47 -80 23 -149
43 -155 44 -5 1 -82 26 -170 55 -282 94 -639 245 -900 381 -113 58 -354 194
-413 232 -15 10 -34 21 -42 25 -35 16 -326 215 -447 305 -653 487 -1194 1071
-1631 1760 -34 53 -70 111 -81 130 -107 187 -145 257 -222 408 -167 331 -258
552 -374 905 l-63 190 -762 3 -762 2 5 -22 c3 -13 8 -32 10 -43 3 -11 10 -42
17 -70 6 -27 15 -63 20 -80 6 -16 28 -95 51 -175 39 -140 158 -504 184 -565 7
-16 39 -95 70 -175 148 -378 373 -831 575 -1160 5 -8 28 -46 51 -85 23 -38 46
-71 51 -73 4 -2 8 -8 8 -13 0 -35 414 -606 590 -813 48 -57 155 -181 165 -192
196 -217 433 -457 580 -589 49 -44 112 -101 140 -126 188 -171 560 -455 828
-633 168 -111 365 -236 373 -236 2 0 32 -17 66 -38 221 -135 659 -349 969
-475 174 -71 465 -179 519 -193 8 -2 67 -20 130 -40 111 -35 199 -61 230 -68
8 -2 42 -11 75 -20 33 -9 67 -18 75 -20 8 -2 42 -11 75 -19 33 -9 71 -18 85
-21 14 -3 57 -12 95 -21 95 -21 198 -42 270 -55 33 -5 70 -12 81 -14 25 -5 73
-13 129 -21 22 -3 65 -10 95 -15 30 -5 75 -12 100 -15 100 -12 163 -19 255
-29 22 -3 78 -8 125 -11 47 -4 103 -8 125 -10 246 -22 805 -22 1105 0 116 8
242 19 335 29 130 15 156 18 241 31 49 8 115 17 144 21 42 5 414 78 560 110
110 24 396 103 580 161 239 74 555 193 748 279 29 13 55 24 57 24 3 0 44 18
92 41 561 261 1032 542 1498 893 98 73 324 255 345 276 8 9 38 34 65 55 28 22
55 45 60 51 6 6 60 57 122 113 221 201 472 461 672 696 52 61 103 121 115 135
17 20 119 152 274 355 98 129 356 525 448 689 114 200 163 292 250 467 71 142
204 432 204 444 0 3 9 24 19 48 139 304 344 965 427 1372 2 11 11 55 20 98 8
42 17 90 20 105 2 15 9 50 14 77 5 28 12 68 15 90 3 22 8 54 12 70 3 17 7 41
8 55 2 14 6 45 9 70 4 25 9 56 11 70 2 14 7 54 10 90 4 36 8 72 10 80 1 8 6
51 9 95 4 44 9 97 12 118 3 28 0 39 -11 44 -20 7 -1416 10 -1446 3z"/>
</g>
</svg>
