<svg xmlns="http://www.w3.org/2000/svg" width="333.333" height="333.333" version="1.0" viewBox="0 0 250 250"><path d="M99.5 27.6c-52.3 6.2-90.9 50.6-89 102.5.9 23.5 8.7 43.9 23.5 61.3 4.9 5.8 11.3 11.5 12.3 10.9.6-.3.7-.1.3.5-.4.6 2.8 3.3 7.7 6.6 11.1 7.4 22.8 12.3 36.2 15.2 11.1 2.4 36.8 2 40-.6.7-.5 1.5-.7 1.8-.4.7.8 11.9-2.8 19.4-6.2 6.7-3 20-11.8 25.7-16.9l3.9-3.5h-15.7c-14.6 0-16 .2-20.4 2.4-28.4 14.4-65.8 8.9-89.7-13.2-2.2-2-4.4-3.6-5-3.4-.5.2-.7.1-.3-.3.3-.4-1.5-3.3-4.1-6.6-18.7-23.2-21.9-57.5-8.1-85.2 4.2-8.4 13.6-20.9 17.1-22.7 1.1-.6 1.6-1.6 1.3-2.2-.4-.6-.3-.8.3-.5.6.4 1.6 0 2.3-.8 3.2-3.9 21.4-13.5 28.5-15.1 22.1-5 40-3.5 57.1 4.7 6 2.8 6.6 2.9 21.5 2.9h15.4l-4.5-4.1c-6.1-5.6-22.2-16-23.7-15.4-.7.2-1.3.1-1.3-.4 0-1.2-13.1-5.9-21.5-7.7-6.7-1.5-24.7-2.5-31-1.8z"/><path d="M79.9 79.5c-.1 0-.3 4.4-.4 9.7-.3 6.7 0 9.8.8 10 .7.2 4.9.4 9.5.4 4.8-.1 8.3.3 8.3.9.1.5.3 16.5.4 35.5.1 19 .3 35 .4 35.5.1.7 4.8 1.1 13.1 1.1 10.9-.1 13-.3 13.1-1.6.1-.8.2-17.2.3-36.5l.1-35h19l.1-9.8c.1-6.5-.2-9.7-1-9.8-.7 0-55.8-.4-63.7-.4z"/><path d="M150.1 80c-1.2.8-.8 19 .4 19.1.5.1 3.7.3 7 .4 9 .3 9.8.4 11.8 1.9 2.1 1.6 2.9 6 1.6 9.3-1.6 4.2-5.1 4.9-23.1 4.8-11.6-.1-16.8.1-16.9.9-.1.6-.2 5-.3 9.8l-.1 8.7h17.6c22.1-.1 24.9 1 24.9 9.1 0 1.5-.9 3.8-1.9 5.1-1.9 2.3-2.3 2.4-20.7 2.7-10.4.2-19.1.7-19.4 1.2-.3.5-.5 5.1-.5 10.2l.1 9.3h47c36.5 0 47.9-.3 51.4-1.4 5.6-1.6 12.3-8.2 14-13.6 2-6 2.7-77.5.8-77.6-6-.4-25-.1-25.5.4-.3.4-.6 15-.7 32.4-.1 24.3-.4 32.4-1.4 34.1-1.6 2.8-7 5.3-10.1 4.7-1.4-.2-2.1.1-2.1 1.1 0 2.1-3.7 9.5-6.2 12.5-3.6 4.1-10.8 7.4-10.8 4.9 0-.6.6-1 1.4-1 2.1 0 7.3-5.8 9.6-10.7 3.3-7.1 3.3-22.3-.1-22.3-.4 0-.6-.6-.3-1.4.6-1.7-5.6-6.7-10.9-8.7l-3.8-1.5 4-1.8c7.1-3.3 11.1-9.9 11.1-18.4 0-5.4-1.6-11.2-3.2-11.2-.5 0-.7-.4-.4-.9.8-1.3-3.4-6.2-4.6-5.5-.7.4-.8.2-.4-.4.9-1.5-5.8-4.8-11.6-5.7-5.5-.8-26.7-1.2-27.7-.5z"/></svg>