<?xml version="1.0" standalone="no"?>
<!DOCTYPE svg PUBLIC "-//W3C//DTD SVG 20010904//EN"
 "http://www.w3.org/TR/2001/REC-SVG-20010904/DTD/svg10.dtd">
<svg version="1.0" xmlns="http://www.w3.org/2000/svg"
 width="250.000000pt" height="250.000000pt" viewBox="0 0 250.000000 250.000000"
 preserveAspectRatio="xMidYMid meet">
<metadata>
Created by potrace 1.14, written by Peter Selinger 2001-2017
</metadata>
<g transform="translate(0.000000,250.000000) scale(0.100000,-0.100000)"
fill="#000000" stroke="none">
<path d="M995 2224 c-523 -62 -909 -506 -890 -1025 9 -235 87 -439 235 -613
49 -58 113 -115 123 -109 6 3 7 1 3 -5 -4 -6 28 -33 77 -66 111 -74 228 -123
362 -152 111 -24 368 -20 400 6 7 5 15 7 18 4 7 -8 119 28 194 62 67 30 200
118 257 169 l39 35 -157 0 c-146 0 -160 -2 -204 -24 -284 -144 -658 -89 -897
132 -22 20 -44 36 -50 34 -5 -2 -7 -1 -3 3 3 4 -15 33 -41 66 -187 232 -219
575 -81 852 42 84 136 209 171 227 11 6 16 16 13 22 -4 6 -3 8 3 5 6 -4 16 0
23 8 32 39 214 135 285 151 221 50 400 35 571 -47 60 -28 66 -29 215 -29 l154
0 -45 41 c-61 56 -222 160 -237 154 -7 -2 -13 -1 -13 4 0 12 -131 59 -215 77
-67 15 -247 25 -310 18z"/>
<path d="M799 1705 c-1 0 -3 -44 -4 -97 -3 -67 0 -98 8 -100 7 -2 49 -4 95 -4
48 1 83 -3 83 -9 1 -5 3 -165 4 -355 1 -190 3 -350 4 -355 1 -7 48 -11 131
-11 109 1 130 3 131 16 1 8 2 172 3 365 l1 350 95 0 95 0 1 98 c1 65 -2 97
-10 98 -7 0 -558 4 -637 4z"/>
<path d="M1501 1700 c-12 -8 -8 -190 4 -191 5 -1 37 -3 70 -4 90 -3 98 -4 118
-19 21 -16 29 -60 16 -93 -16 -42 -51 -49 -231 -48 -116 1 -168 -1 -169 -9 -1
-6 -2 -50 -3 -98 l-1 -87 176 0 c221 1 249 -10 249 -91 0 -15 -9 -38 -19 -51
-19 -23 -23 -24 -207 -27 -104 -2 -191 -7 -194 -12 -3 -5 -5 -51 -5 -102 l1
-93 470 0 c365 0 479 3 514 14 56 16 123 82 140 136 20 60 27 775 8 776 -60 4
-250 1 -255 -4 -3 -4 -6 -150 -7 -324 -1 -243 -4 -324 -14 -341 -16 -28 -70
-53 -101 -47 -14 2 -21 -1 -21 -11 0 -21 -37 -95 -62 -125 -36 -41 -108 -74
-108 -49 0 6 6 10 14 10 21 0 73 58 96 107 33 71 33 223 -1 223 -4 0 -6 6 -3
14 6 17 -56 67 -109 87 l-38 15 40 18 c71 33 111 99 111 184 0 54 -16 112 -32
112 -5 0 -7 4 -4 9 8 13 -34 62 -46 55 -7 -4 -8 -2 -4 4 9 15 -58 48 -116 57
-55 8 -267 12 -277 5z"/>
</g>
</svg>
