<?xml version="1.0" encoding="UTF-8"?>
<svg xmlns="http://www.w3.org/2000/svg" xmlns:xlink="http://www.w3.org/1999/xlink" width="px" height="px" viewBox="0 0 167 167" version="1.1">
<g id="surface1">
<path style=" stroke:none;fill-rule:nonzero;fill:rgb(0%,0%,0%);fill-opacity:1;" d="M 66.53125 18.457031 C 31.5625 22.601562 5.75 52.289062 7.019531 86.992188 C 7.621094 102.707031 12.839844 116.347656 22.734375 127.984375 C 26.011719 131.863281 30.289062 135.671875 30.960938 135.273438 C 31.359375 135.070312 31.425781 135.203125 31.160156 135.605469 C 30.890625 136.007812 33.03125 137.8125 36.308594 140.019531 C 43.730469 144.96875 51.554688 148.242188 60.515625 150.183594 C 67.9375 151.789062 85.121094 151.519531 87.261719 149.78125 C 87.730469 149.449219 88.265625 149.3125 88.464844 149.515625 C 88.933594 150.050781 96.421875 147.640625 101.4375 145.367188 C 105.917969 143.363281 114.808594 137.476562 118.621094 134.066406 L 121.230469 131.726562 L 110.730469 131.726562 C 100.96875 131.726562 100.03125 131.863281 97.089844 133.332031 C 78.101562 142.960938 53.09375 139.285156 37.109375 124.507812 C 35.640625 123.167969 34.167969 122.097656 33.769531 122.234375 C 33.433594 122.367188 33.300781 122.300781 33.566406 122.03125 C 33.769531 121.765625 32.5625 119.824219 30.824219 117.617188 C 18.320312 102.105469 16.183594 79.171875 25.410156 60.648438 C 28.21875 55.03125 34.503906 46.671875 36.84375 45.46875 C 37.578125 45.066406 37.914062 44.398438 37.710938 44 C 37.445312 43.597656 37.511719 43.464844 37.914062 43.664062 C 38.316406 43.929688 38.984375 43.664062 39.453125 43.128906 C 41.589844 40.519531 53.761719 34.101562 58.507812 33.03125 C 73.285156 29.6875 85.253906 30.691406 96.6875 36.175781 C 100.703125 38.046875 101.101562 38.113281 111.066406 38.113281 L 121.363281 38.113281 L 118.355469 35.371094 C 114.273438 31.628906 103.511719 24.675781 102.507812 25.074219 C 102.039062 25.207031 101.636719 25.140625 101.636719 24.808594 C 101.636719 24.003906 92.878906 20.863281 87.261719 19.660156 C 82.78125 18.65625 70.746094 17.988281 66.53125 18.457031 Z M 66.53125 18.457031 "/>
<path style=" stroke:none;fill-rule:nonzero;fill:rgb(0%,0%,0%);fill-opacity:1;" d="M 53.425781 53.160156 C 53.359375 53.160156 53.226562 56.101562 53.160156 59.644531 C 52.957031 64.125 53.160156 66.199219 53.695312 66.332031 C 54.160156 66.464844 56.96875 66.597656 60.046875 66.597656 C 63.257812 66.53125 65.597656 66.800781 65.597656 67.199219 C 65.664062 67.535156 65.796875 78.234375 65.863281 90.9375 C 65.929688 103.644531 66.0625 114.34375 66.132812 114.675781 C 66.199219 115.144531 69.339844 115.410156 74.890625 115.410156 C 82.179688 115.34375 83.582031 115.210938 83.648438 114.34375 C 83.71875 113.808594 83.785156 102.839844 83.851562 89.9375 L 83.917969 66.53125 L 96.621094 66.53125 L 96.6875 59.980469 C 96.757812 55.632812 96.554688 53.492188 96.019531 53.425781 C 95.550781 53.425781 58.710938 53.160156 53.425781 53.160156 Z M 53.425781 53.160156 "/>
<path style=" stroke:none;fill-rule:nonzero;fill:rgb(0%,0%,0%);fill-opacity:1;" d="M 100.367188 53.492188 C 99.566406 54.027344 99.832031 66.199219 100.632812 66.265625 C 100.96875 66.332031 103.109375 66.464844 105.316406 66.53125 C 111.332031 66.734375 111.867188 66.800781 113.207031 67.804688 C 114.609375 68.871094 115.144531 71.816406 114.273438 74.023438 C 113.207031 76.828125 110.863281 77.296875 98.828125 77.230469 C 91.074219 77.164062 87.59375 77.296875 87.527344 77.832031 C 87.460938 78.234375 87.394531 81.175781 87.328125 84.386719 L 87.261719 90.203125 L 99.03125 90.203125 C 113.808594 90.136719 115.679688 90.871094 115.679688 96.289062 C 115.679688 97.292969 115.078125 98.828125 114.410156 99.699219 C 113.136719 101.238281 112.871094 101.304688 100.566406 101.503906 C 93.613281 101.636719 87.796875 101.972656 87.59375 102.304688 C 87.394531 102.640625 87.261719 105.714844 87.261719 109.125 L 87.328125 115.34375 L 118.753906 115.34375 C 143.160156 115.34375 150.785156 115.144531 153.125 114.410156 C 156.871094 113.339844 161.347656 108.925781 162.484375 105.316406 C 163.824219 101.304688 164.292969 53.492188 163.019531 53.425781 C 159.007812 53.160156 146.304688 53.359375 145.96875 53.695312 C 145.769531 53.960938 145.570312 63.722656 145.503906 75.359375 C 145.433594 91.609375 145.234375 97.023438 144.566406 98.160156 C 143.496094 100.03125 139.886719 101.703125 137.8125 101.304688 C 136.875 101.167969 136.410156 101.371094 136.410156 102.039062 C 136.410156 103.441406 133.933594 108.390625 132.261719 110.398438 C 129.855469 113.136719 125.039062 115.34375 125.039062 113.671875 C 125.039062 113.273438 125.441406 113.003906 125.976562 113.003906 C 127.382812 113.003906 130.859375 109.125 132.394531 105.851562 C 134.601562 101.101562 134.601562 90.9375 132.328125 90.9375 C 132.0625 90.9375 131.929688 90.539062 132.128906 90.003906 C 132.53125 88.867188 128.382812 85.523438 124.839844 84.183594 L 122.300781 83.183594 L 124.972656 81.980469 C 129.722656 79.773438 132.394531 75.359375 132.394531 69.675781 C 132.394531 66.0625 131.328125 62.1875 130.257812 62.1875 C 129.921875 62.1875 129.789062 61.917969 129.988281 61.585938 C 130.523438 60.714844 127.714844 57.4375 126.914062 57.90625 C 126.445312 58.175781 126.378906 58.039062 126.644531 57.640625 C 127.246094 56.636719 122.765625 54.429688 118.890625 53.828125 C 115.210938 53.292969 101.035156 53.023438 100.367188 53.492188 Z M 100.367188 53.492188 "/>
</g>
</svg>
